HIERARCHY
ROOT Hips
{
	OFFSET -0.001795 -0.223333 0.028219
	CHANNELS 6 Xposition Yposition Zposition Zrotation Yrotation Xrotation
	JOINT LeftUpLeg
	{
		OFFSET 0.069520 -0.091406 -0.006815
		CHANNELS 3 Zrotation Yrotation Xrotation
		JOINT LeftLeg
		{
			OFFSET 0.034277 -0.375199 -0.004496
			CHANNELS 3 Zrotation Yrotation Xrotation
			JOINT LeftFoot
			{
				OFFSET -0.013596 -0.397961 -0.043693
				CHANNELS 3 Zrotation Yrotation Xrotation
				JOINT LeftToe
				{
					OFFSET 0.026358 -0.055791 0.119288
					CHANNELS 3 Zrotation Yrotation Xrotation
					End Site
					{
						OFFSET 0.000000 0.000000 0.000000
					}
				}
			}
		}
	}
	JOINT RightUpLeg
	{
		OFFSET -0.067670 -0.090522 -0.004320
		CHANNELS 3 Zrotation Yrotation Xrotation
		JOINT RightLeg
		{
			OFFSET -0.038290 -0.382569 -0.008850
			CHANNELS 3 Zrotation Yrotation Xrotation
			JOINT RightFoot
			{
				OFFSET 0.015774 -0.398415 -0.042312
				CHANNELS 3 Zrotation Yrotation Xrotation
				JOINT RightToe
				{
					OFFSET -0.025372 -0.048144 0.123348
					CHANNELS 3 Zrotation Yrotation Xrotation
					End Site
					{
						OFFSET 0.000000 0.000000 0.000000
					}
				}
			}
		}
	}
	JOINT Spine
	{
		OFFSET -0.002533 0.108963 -0.026696
		CHANNELS 3 Zrotation Yrotation Xrotation
		JOINT Spine1
		{
			OFFSET 0.005487 0.135180 0.001092
			CHANNELS 3 Zrotation Yrotation Xrotation
			JOINT Spine2
			{
				OFFSET 0.001457 0.052922 0.025425
				CHANNELS 3 Zrotation Yrotation Xrotation
				JOINT Neck
				{
					OFFSET -0.002778 0.213870 -0.042857
					CHANNELS 3 Zrotation Yrotation Xrotation
					JOINT Head
					{
						OFFSET 0.005152 0.064970 0.051349
						CHANNELS 3 Zrotation Yrotation Xrotation
						End Site
						{
							OFFSET 0.000000 0.000000 0.000000
						}
					}
				}
				JOINT LeftShoulder
				{
					OFFSET 0.078845 0.121749 -0.034090
					CHANNELS 3 Zrotation Yrotation Xrotation
					JOINT LeftArm
					{
						OFFSET 0.090977 0.030469 -0.008868
						CHANNELS 3 Zrotation Yrotation Xrotation
						JOINT LeftForeArm
						{
							OFFSET 0.259612 -0.012772 -0.027456
							CHANNELS 3 Zrotation Yrotation Xrotation
							JOINT LeftHand
							{
								OFFSET 0.249234 0.008986 -0.001171
								CHANNELS 3 Zrotation Yrotation Xrotation
								End Site
								{
									OFFSET 0.000000 0.000000 0.000000
								}
							}
						}
					}
				}
				JOINT RightShoulder
				{
					OFFSET -0.081759 0.118833 -0.038615
					CHANNELS 3 Zrotation Yrotation Xrotation
					JOINT RightArm
					{
						OFFSET -0.096012 0.032551 -0.009143
						CHANNELS 3 Zrotation Yrotation Xrotation
						JOINT RightForeArm
						{
							OFFSET -0.253742 -0.013329 -0.021401
							CHANNELS 3 Zrotation Yrotation Xrotation
							JOINT RightHand
							{
								OFFSET -0.255298 0.007772 -0.005559
								CHANNELS 3 Zrotation Yrotation Xrotation
								End Site
								{
									OFFSET 0.000000 0.000000 0.000000
								}
							}
						}
					}
				}
			}
		}
	}
}
MOTION
Frames: 7
Frame Time: 0.050000
0.000000 0.953492 0.000000 -0.449393 -4.203203 0.846459 -0.108207 0.545035 5.572414 -0.261004 0.213366 -5.645287 6.959312 15.677944 16.000480 0.000000 0.000000 0.000000 -1.090238 -0.200745 2.745059 2.246228 -0.305043 -4.706710 -3.972431 -13.164158 13.309076 0.000000 0.000000 0.000000 7.935226 -0.742858 6.167468 -9.033739 2.552253 -26.531321 0.797372 6.541526 26.058207 10.224641 -5.493231 -17.768162 0.000000 0.000000 0.000000 -30.060798 -7.451166 1.594476 -40.543842 5.032278 -7.879245 -4.935333 -29.067285 2.455255 0.000000 0.000000 0.000000 38.781899 -4.071409 -4.283124 45.749682 -3.652438 -8.395495 4.941269 29.484756 2.810965 0.000000 0.000000 0.000000
0.000162 0.952348 -0.000811 -0.506383 -4.598011 1.326814 0.349684 0.499336 5.340592 -1.082137 0.284929 -6.166130 7.156373 15.916604 15.849799 0.000000 0.000000 0.000000 -1.031797 -0.117134 1.757993 2.196683 -0.287874 -4.036692 -3.921114 -13.020633 12.780630 0.000000 0.000000 0.000000 8.570604 -0.745376 5.775541 -9.663004 2.695542 -26.191100 0.461574 6.911830 25.582137 10.878684 -5.811991 -18.228693 0.000000 0.000000 0.000000 -29.353055 -7.135561 1.382941 -42.023039 4.497162 -7.996790 -2.692297 -29.687591 1.949618 0.000000 0.000000 0.000000 39.089538 -4.517553 -4.677585 46.810504 -4.330114 -8.768272 5.153353 30.468861 3.005674 0.000000 0.000000 0.000000
0.000372 0.952053 -0.001879 -0.101157 -4.468358 1.569432 0.666289 0.403203 4.502519 -2.415624 0.358381 -5.361469 7.071002 15.789886 15.668676 0.000000 0.000000 0.000000 -1.288031 -0.099981 1.714864 1.877360 -0.280656 -4.598497 -4.008686 -13.161503 12.777308 0.000000 0.000000 0.000000 8.645938 -0.702207 5.305228 -10.523423 2.852415 -26.908191 0.846702 5.760112 26.983288 10.059683 -5.209537 -19.571079 0.000000 0.000000 0.000000 -29.565629 -7.620158 2.228728 -42.339266 3.344479 -7.944278 -2.297538 -27.896534 1.789441 0.000000 0.000000 0.000000 37.979499 -3.685468 -4.370081 47.703121 -3.859272 -8.720808 4.292407 28.795230 2.563908 0.000000 0.000000 0.000000
0.000515 0.952792 -0.002987 0.137353 -4.759232 1.956079 0.266358 0.386916 4.126691 -2.250748 0.351799 -5.590942 7.170858 15.924640 16.146254 0.000000 0.000000 0.000000 -1.567470 -0.028921 1.050381 1.862244 -0.273759 -4.402060 -3.886868 -13.004649 12.886398 0.000000 0.000000 0.000000 8.973275 -0.686050 4.961131 -10.932398 2.879258 -27.830261 0.684048 5.924888 28.036338 10.649922 -5.583904 -19.981232 0.000000 0.000000 0.000000 -30.393435 -8.192681 2.665325 -42.236006 3.292614 -7.982457 -0.522073 -27.778767 1.365286 0.000000 0.000000 0.000000 39.185266 -3.535887 -4.390222 46.864110 -3.539991 -8.555006 4.287714 28.348211 2.518106 0.000000 0.000000 0.000000
0.000613 0.953687 -0.004072 0.294667 -5.088881 2.034810 0.131545 0.346814 3.642744 -2.388009 0.353908 -5.013462 7.330831 16.135906 16.477840 0.000000 0.000000 0.000000 -1.688906 -0.017363 1.000503 1.718931 -0.270097 -4.695275 -3.679200 -12.735319 13.161904 0.000000 0.000000 0.000000 8.772085 -0.683338 5.026396 -10.070205 2.751757 -26.721123 -0.209038 6.061036 26.724886 10.557988 -5.628129 -19.115674 0.000000 0.000000 0.000000 -30.671984 -8.056808 2.510464 -42.241766 3.080464 -7.785998 -0.601132 -26.724238 1.313495 0.000000 0.000000 0.000000 39.139510 -3.251888 -4.259860 47.010010 -3.165961 -8.305461 3.691864 27.594546 2.276136 0.000000 0.000000 0.000000
0.000684 0.954365 -0.004712 0.321266 -5.242949 1.908251 0.025083 0.356852 3.695132 -2.281142 0.344966 -4.928184 7.382772 16.205313 16.721828 0.000000 0.000000 0.000000 -1.655822 -0.025508 1.086804 1.579528 -0.262636 -4.717504 -3.568164 -12.597402 13.338631 0.000000 0.000000 0.000000 8.837741 -0.724987 5.395740 -10.318021 2.772038 -27.314532 0.038148 5.886896 27.392585 10.397607 -5.585016 -19.139989 0.000000 0.000000 0.000000 -30.617092 -8.458732 2.946455 -42.717258 2.610173 -7.825235 -0.934839 -26.238594 1.381896 0.000000 0.000000 0.000000 38.959532 -2.954455 -4.103784 46.993327 -2.660010 -8.154239 3.610020 26.996081 2.192632 0.000000 0.000000 0.000000
0.000749 0.954697 -0.005009 0.342130 -5.429945 1.561062 0.072592 0.374679 3.883904 -2.438017 0.353404 -4.603333 7.462988 16.309587 16.804024 0.000000 0.000000 0.000000 -1.544610 -0.040554 1.205703 1.303888 -0.238362 -4.325791 -3.491454 -12.471033 13.265983 0.000000 0.000000 0.000000 8.825753 -0.781842 5.985845 -9.955482 2.708762 -27.055519 -0.292192 5.844542 27.082215 10.271871 -5.552785 -18.925260 0.000000 0.000000 0.000000 -31.204567 -8.463975 2.977013 -42.276093 2.714375 -7.756587 -1.452647 -26.109532 1.486751 0.000000 0.000000 0.000000 39.433811 -2.386611 -3.808859 46.215415 -2.435260 -7.898205 3.880178 27.210831 2.243634 0.000000 0.000000 0.000000
